<?xml version="1.0" encoding="UTF-8" standalone="no"?>
<!-- Created with Inkscape (http://www.inkscape.org/) by Marsupilami -->
<svg
   xmlns:svg="http://www.w3.org/2000/svg"
   xmlns="http://www.w3.org/2000/svg"
   version="1.0"
   width="1024"
   height="204"
   viewBox="0 0 155.33 30.9795"
   id="svg2325">
  <defs
     id="defs2327" />
  <g
     transform="translate(-173.87888,-50.5295)"
     id="layer1">
    <path
       d="M 259.3301,542.0114 L 259.3301,547.6574 C 259.3301,548.0854 259.2481,548.3934 259.0831,548.5834 C 258.9181,548.7724 258.6491,548.8674 258.2761,548.8674 C 257.9401,548.8674 257.6481,548.7844 257.4011,548.6204 C 257.1531,548.4544 256.9531,548.2044 256.8011,547.8684 L 256.8011,542.0114 L 253.3171,542.0114 L 253.3171,547.6574 C 253.3171,548.0854 253.2341,548.3934 253.0691,548.5834 C 252.9041,548.7724 252.6341,548.8674 252.2611,548.8674 C 251.9251,548.8674 251.6351,548.7864 251.3931,548.6244 C 251.1511,548.4624 250.9451,548.2104 250.7741,547.8684 L 250.7741,542.0114 L 246.9171,542.0114 L 246.9171,551.9364 L 250.7741,551.9364 L 250.7741,550.7474 C 251.2451,551.2174 251.7271,551.5604 252.2201,551.7774 C 252.7131,551.9934 253.2601,552.1024 253.8601,552.1024 C 254.5711,552.1024 255.1581,551.9644 255.6241,551.6894 C 256.0901,551.4144 256.4661,550.9804 256.7541,550.3884 C 257.2491,550.9804 257.7711,551.4144 258.3181,551.6894 C 258.8651,551.9644 259.4781,552.1024 260.1571,552.1024 C 261.2141,552.1024 262.0141,551.8034 262.5541,551.2064 C 263.0961,550.6094 263.3671,549.7284 263.3671,548.5654 L 263.3671,542.0114 L 259.3301,542.0114 z M 244.5151,547.4834 C 244.2271,547.7214 243.9651,547.8944 243.7301,548.0014 C 243.4941,548.1084 243.2601,548.1624 243.0271,548.1624 C 242.5871,548.1624 242.2091,547.9954 241.8941,547.6614 C 241.5781,547.3284 241.3381,546.8374 241.1731,546.1884 L 241.1731,542.0114 L 237.2471,542.0114 L 237.2471,551.9364 L 240.7971,551.9364 L 240.7971,549.4204 C 241.2071,550.3014 241.6841,550.9644 242.2291,551.4084 C 242.7741,551.8524 243.3851,552.0744 244.0651,552.0744 C 244.4201,552.0744 244.7851,552.0134 245.1581,551.8904 C 245.5311,551.7684 245.9081,551.5904 246.2871,551.3574 L 244.5151,547.4834 z M 231.7461,549.3244 C 231.4981,549.6374 231.1491,549.7934 230.6971,549.7934 C 230.2211,549.7934 229.8641,549.6394 229.6261,549.3294 C 229.3881,549.0194 229.2691,548.5584 229.2691,547.9454 L 229.2691,547.6784 L 232.0981,547.6784 C 232.0981,547.7214 232.1011,547.7754 232.1071,547.8394 C 232.1131,547.9034 232.1171,547.9514 232.1171,547.9824 C 232.1171,548.5644 231.9931,549.0114 231.7461,549.3244 M 235.6371,546.4204 L 229.3611,546.4204 C 229.4521,545.7124 229.7271,545.1644 230.1861,544.7764 C 230.6451,544.3894 231.2471,544.1954 231.9931,544.1954 C 232.4581,544.1954 232.9111,544.2804 233.3511,544.4514 C 233.7921,544.6224 234.3141,544.9234 234.9201,545.3564 L 235.7251,543.7374 C 235.0581,543.0894 234.3351,542.6104 233.5551,542.2984 C 232.7761,541.9874 231.9101,541.8314 230.9561,541.8314 C 229.3551,541.8314 228.0461,542.3124 227.0311,543.2754 C 226.0161,544.2384 225.5091,545.4844 225.5091,547.0124 C 225.5091,548.4924 225.9951,549.7094 226.9681,550.6664 C 227.9401,551.6234 229.1851,552.1024 230.7011,552.1024 C 232.2121,552.1024 233.4151,551.6344 234.3111,550.6974 C 235.2071,549.7614 235.6551,548.5014 235.6551,546.9164 C 235.6551,546.7814 235.6531,546.6804 235.6511,546.6134 C 235.6481,546.5464 235.6431,546.4814 235.6371,546.4204 M 220.2251,542.0114 L 220.2251,547.6574 C 220.2251,548.0854 220.1431,548.3934 219.9781,548.5834 C 219.8131,548.7724 219.5441,548.8674 219.1721,548.8674 C 218.8361,548.8674 218.5441,548.7844 218.2961,548.6204 C 218.0491,548.4544 217.8391,548.2044 217.6681,547.8684 L 217.6681,542.0114 L 213.7561,542.0114 L 213.7561,554.8524 L 217.6681,554.8524 L 217.6681,550.7424 C 218.1391,551.2134 218.6281,551.5584 219.1361,551.7754 C 219.6431,551.9934 220.2111,552.1024 220.8411,552.1024 C 221.9291,552.1024 222.7531,551.8014 223.3121,551.2014 C 223.8711,550.6014 224.1511,549.7224 224.1511,548.5654 L 224.1511,542.0114 L 220.2251,542.0114 z M 209.2211,545.4604 C 209.3961,545.2714 209.6981,545.1764 210.1271,545.1764 C 210.4641,545.1764 210.8141,545.2344 211.1791,545.3504 C 211.5441,545.4664 211.9101,545.6404 212.2771,545.8724 L 212.2771,542.8974 C 211.7941,542.5234 211.2751,542.2524 210.7221,542.0844 C 210.1671,541.9154 209.5201,541.8314 208.7801,541.8314 C 207.5491,541.8314 206.6171,542.1154 205.9841,542.6814 C 205.3511,543.2484 205.0341,544.0794 205.0341,545.1764 L 205.0341,549.4344 L 203.3201,549.4344 L 203.3201,550.6194 L 207.9861,554.8524 L 208.9601,554.8524 L 208.9601,551.9364 L 212.0661,551.9364 L 212.0661,549.4344 L 208.9601,549.4344 L 208.9601,546.4674 C 208.9601,545.9854 209.0471,545.6494 209.2211,545.4604 M 198.5101,548.3864 C 198.2011,548.7434 197.7931,548.9224 197.2861,548.9224 C 196.7731,548.9224 196.3581,548.7434 196.0441,548.3864 C 195.7291,548.0284 195.5721,547.5554 195.5721,546.9684 C 195.5721,546.3754 195.7311,545.8984 196.0481,545.5374 C 196.3661,545.1774 196.7791,544.9974 197.2861,544.9974 C 197.7871,544.9974 198.1931,545.1774 198.5051,545.5374 C 198.8171,545.8984 198.9721,546.3754 198.9721,546.9684 C 198.9721,547.5554 198.8181,548.0284 198.5101,548.3864 M 201.4211,543.2534 C 200.3811,542.3144 199.0041,541.8454 197.2911,541.8454 C 195.5711,541.8454 194.1911,542.3144 193.1511,543.2534 C 192.1111,544.1924 191.5911,545.4324 191.5911,546.9734 C 191.5911,548.5154 192.1091,549.7554 193.1471,550.6934 C 194.1841,551.6324 195.5651,552.1024 197.2911,552.1024 C 199.0161,552.1024 200.3961,551.6324 201.4301,550.6934 C 202.4641,549.7554 202.9811,548.5154 202.9811,546.9734 C 202.9811,545.4324 202.4611,544.1924 201.4211,543.2534 M 189.6591,547.4834 C 189.3711,547.7214 189.1091,547.8944 188.8741,548.0014 C 188.6381,548.1084 188.4041,548.1624 188.1711,548.1624 C 187.7311,548.1624 187.3531,547.9954 187.0371,547.6614 C 186.7221,547.3284 186.4821,546.8374 186.3161,546.1884 L 186.3161,542.0114 L 182.3911,542.0114 L 182.3911,551.9364 L 185.9401,551.9364 L 185.9401,549.4204 C 186.3501,550.3014 186.8281,550.9644 187.3731,551.4084 C 187.9171,551.8524 188.5301,552.0744 189.2091,552.0744 C 189.5641,552.0744 189.9281,552.0134 190.3021,551.8904 C 190.6751,551.7684 191.0511,551.5904 191.4311,551.3574 L 189.6591,547.4834 z M 177.7731,545.4604 C 177.9471,545.2714 178.2491,545.1764 178.6781,545.1764 C 179.0151,545.1764 179.3661,545.2344 179.7311,545.3504 C 180.0951,545.4664 180.4611,545.6404 180.8291,545.8724 L 180.8291,542.8974 C 180.3451,542.5234 179.8261,542.2524 179.2731,542.0844 C 178.7191,541.9154 178.0721,541.8314 177.3311,541.8314 C 176.1011,541.8314 175.1691,542.1154 174.5361,542.6814 C 173.9021,543.2484 173.5851,544.0794 173.5851,545.1764 L 173.5851,549.4344 L 171.8711,549.4344 L 171.8711,550.6194 L 176.5381,554.8524 L 177.5111,554.8524 L 177.5111,551.9364 L 180.6171,551.9364 L 180.6171,549.4344 L 177.5111,549.4344 L 177.5111,546.4674 C 177.5111,545.9854 177.5981,545.6494 177.7731,545.4604 M 167.1921,542.0114 L 167.1921,547.6574 C 167.1921,548.0854 167.1091,548.3934 166.9441,548.5834 C 166.7791,548.7724 166.5101,548.8674 166.1371,548.8674 C 165.8021,548.8674 165.5101,548.7844 165.2621,548.6204 C 165.0151,548.4544 164.8051,548.2044 164.6341,547.8684 L 164.6341,542.0114 L 160.7221,542.0114 L 160.7221,551.9364 L 164.6341,551.9364 L 164.6341,550.7474 C 165.1051,551.2174 165.5931,551.5604 166.0981,551.7774 C 166.6021,551.9934 167.1671,552.1024 167.7911,552.1024 C 168.8801,552.1024 169.7041,551.8014 170.2641,551.2014 C 170.8231,550.6014 171.1031,549.7224 171.1031,548.5654 L 171.1031,542.0114 L 167.1921,542.0114 z M 155.3461,549.3244 C 155.0981,549.6374 154.7491,549.7934 154.2971,549.7934 C 153.8211,549.7934 153.4641,549.6394 153.2261,549.3294 C 152.9881,549.0194 152.8691,548.5584 152.8691,547.9454 L 152.8691,547.6784 L 155.6981,547.6784 C 155.6981,547.7214 155.7011,547.7754 155.7071,547.8394 C 155.7131,547.9034 155.7161,547.9514 155.7161,547.9824 C 155.7161,548.5644 155.5931,549.0114 155.3461,549.3244 M 159.2371,546.4204 L 152.9601,546.4204 C 153.0521,545.7124 153.3271,545.1644 153.7861,544.7764 C 154.2451,544.3894 154.8471,544.1954 155.5931,544.1954 C 156.0581,544.1954 156.5111,544.2804 156.9511,544.4514 C 157.3911,544.6224 157.9141,544.9234 158.5201,545.3564 L 159.3241,543.7374 C 158.6581,543.0894 157.9351,542.6104 157.1551,542.2984 C 156.3761,541.9874 155.5091,541.8314 154.5561,541.8314 C 152.9541,541.8314 151.6461,542.3124 150.6311,543.2754 C 149.6161,544.2384 149.1091,545.4844 149.1091,547.0124 C 149.1091,548.4924 149.5951,549.7094 150.5671,550.6664 C 151.5401,551.6234 152.7851,552.1024 154.3011,552.1024 C 155.8121,552.1024 157.0151,551.6344 157.9111,550.6974 C 158.8071,549.7614 159.2551,548.5014 159.2551,546.9164 C 159.2551,546.7814 159.2531,546.6804 159.2501,546.6134 C 159.2471,546.5464 159.2431,546.4814 159.2371,546.4204 M 143.7721,545.5914 C 144.2311,545.2414 144.8361,545.0664 145.5881,545.0664 C 145.8941,545.0664 146.2531,545.1134 146.6661,545.2074 C 147.0781,545.3024 147.5201,545.4404 147.9911,545.6234 L 147.9911,542.3914 C 147.4291,542.2024 146.8801,542.0614 146.3451,541.9694 C 145.8101,541.8774 145.2881,541.8314 144.7811,541.8314 C 143.0811,541.8314 141.7101,542.3054 140.6671,543.2534 C 139.6241,544.2004 139.1031,545.4414 139.1031,546.9764 C 139.1031,548.5164 139.6181,549.7564 140.6481,550.6944 C 141.6791,551.6324 143.0501,552.1024 144.7621,552.1024 C 145.2821,552.1024 145.8021,552.0564 146.3221,551.9644 C 146.8411,551.8724 147.3741,551.7344 147.9181,551.5504 L 147.9181,548.2464 C 147.3681,548.4834 146.9211,548.6464 146.5791,548.7344 C 146.2361,548.8234 145.9061,548.8674 145.5881,548.8674 C 144.8361,548.8674 144.2311,548.6924 143.7721,548.3424 C 143.3131,547.9914 143.0841,547.5364 143.0841,546.9764 C 143.0841,546.4024 143.3131,545.9414 143.7721,545.5914"
       transform="matrix(1.25,0,0,-1.25,0,744.095)"
       style="fill:#cf171e;fill-opacity:1;fill-rule:nonzero;stroke:none"
       id="path2587" />
    <path
       d="M 260.7973,535.0698 L 260.7973,535.8218 L 263.1193,535.8218 L 263.1193,532.5878 C 262.9213,532.4378 262.1793,531.9768 261.1073,531.9768 C 259.4343,531.9768 258.3723,533.0108 258.3723,535.5208 C 258.3723,537.3068 259.0773,538.6698 260.9193,538.6698 C 262.0943,538.6698 263.0813,538.0768 263.0813,536.8268 L 262.0383,536.8268 C 262.0383,537.3818 261.7273,537.9178 260.9093,537.9178 C 259.6883,537.9178 259.4063,536.6958 259.4063,535.5208 C 259.4063,534.2898 259.5843,532.7288 261.0793,532.7288 C 261.6523,532.7288 262.1133,532.8888 262.1793,532.9828 L 262.1793,535.0698 L 260.7973,535.0698 z M 255.0823,537.7018 L 255.0633,537.7018 L 254.1233,534.6848 L 255.9753,534.6848 L 255.0823,537.7018 z M 256.8673,532.0808 L 256.2293,533.9328 L 253.9073,533.9328 L 253.2773,532.0808 L 252.2813,532.0808 L 254.4903,538.5668 L 255.6463,538.5668 L 257.8643,532.0808 L 256.8673,532.0808 z M 247.1303,535.5208 C 247.1303,535.2108 247.4873,535.0418 247.7783,534.8628 L 248.1353,534.6558 C 248.6063,534.3648 249.1693,534.0728 249.1693,533.3308 C 249.1693,532.3908 248.4933,531.9768 247.4873,531.9768 C 246.8763,531.9768 246.4823,532.0998 246.2843,532.1558 L 246.2843,532.8988 C 246.3693,532.8608 246.9423,532.6358 247.4123,532.6358 C 247.8163,532.6358 248.3243,532.7478 248.3243,533.2078 C 248.3243,533.5468 247.9103,533.7348 247.6093,533.9328 L 247.1773,534.1958 C 246.7733,534.4488 246.2843,534.7498 246.2843,535.4078 C 246.2843,536.2168 246.9423,536.6578 247.8723,536.6578 C 248.3243,536.6578 248.6713,536.5358 248.8883,536.4988 L 248.8883,535.7368 C 248.7653,535.7938 248.3523,535.9998 247.8633,535.9998 C 247.4973,535.9998 247.1303,535.8028 247.1303,535.5208 M 244.8373,535.0978 C 244.8373,535.4368 244.7703,535.9998 244.1503,535.9998 C 243.5963,535.9998 243.2383,535.4648 243.2383,534.6378 C 243.2383,533.7538 243.6053,532.6358 245.0153,532.6358 C 245.2503,532.6358 245.4853,532.6538 245.7293,532.7288 L 245.7293,532.1468 C 245.4003,532.0428 245.0153,531.9768 244.4893,531.9768 C 242.7783,531.9768 242.2993,533.3688 242.2993,534.4778 C 242.2993,535.7278 242.8723,536.6578 244.2073,536.6578 C 245.4763,536.6578 245.8043,535.8308 245.8043,535.0978 L 244.8373,535.0978 z M 241.1333,532.0808 L 240.2873,532.0808 L 240.2873,536.5548 L 241.1333,536.5548 L 241.1333,532.0808 z M 240.2033,538.5668 L 241.2183,538.5668 L 241.2183,537.6078 L 240.2033,537.6078 L 240.2033,538.5668 z M 237.9933,534.0828 L 237.8253,534.0828 C 237.1573,534.0828 236.4903,533.7818 236.4903,533.2078 C 236.4903,532.8608 236.7243,532.6358 236.9793,532.6358 C 237.5613,532.6358 237.9933,533.3028 237.9933,533.8288 L 237.9933,534.0828 z M 237.9933,532.0808 L 237.9933,532.6358 L 237.9753,532.6358 C 237.8623,532.3908 237.5053,531.9768 236.8183,531.9768 C 235.9823,531.9768 235.5493,532.4848 235.5493,533.1808 C 235.5493,534.3648 236.8573,534.6468 237.9933,534.6468 L 237.9933,535.4268 C 237.9183,535.8588 237.6273,535.9998 237.3073,535.9998 C 236.8003,535.9998 236.5933,535.6718 236.5933,535.3148 L 235.7003,535.3148 C 235.7003,536.0288 236.1233,536.6578 237.3733,536.6578 C 238.8393,536.6578 238.8393,535.5588 238.8393,535.1548 L 238.8393,532.0808 L 237.9933,532.0808 z M 233.7453,535.8968 L 233.7453,533.5098 C 233.7453,533.1048 233.8023,532.6358 234.4603,532.6358 C 234.6103,532.6358 234.7883,532.6638 234.9113,532.7008 L 234.9113,532.0428 C 234.6943,531.9958 234.4693,531.9768 234.2433,531.9768 C 233.1623,531.9768 232.8993,532.4558 232.8993,533.0668 L 232.8993,535.8968 L 232.1003,535.8968 L 232.1003,536.5548 L 232.8993,536.5548 L 232.8993,537.6078 L 233.7453,538.1338 L 233.7453,536.5548 L 234.9863,536.5548 L 234.9863,535.8968 L 233.7453,535.8968 z M 230.1923,538.5668 L 231.0383,538.5668 L 231.0383,532.0808 L 230.1923,532.0808 L 230.1923,538.5668 z M 227.0623,535.9998 C 226.1313,535.9998 226.0193,535.0418 226.0193,534.3178 C 226.0193,533.6028 226.1313,532.6358 227.0623,532.6358 C 227.9743,532.6358 228.0963,533.6028 228.0963,534.3178 C 228.0963,535.0418 227.9743,535.9998 227.0623,535.9998 M 227.0623,531.9768 C 225.7083,531.9768 225.0793,532.9078 225.0793,534.3178 C 225.0793,535.7468 225.7083,536.6578 227.0623,536.6578 C 228.4063,536.6578 229.0363,535.7468 229.0363,534.3178 C 229.0363,532.9078 228.4063,531.9768 227.0623,531.9768 M 223.1233,532.0808 L 222.2593,532.0808 L 220.5673,536.5548 L 221.5073,536.5548 L 222.6723,533.3028 L 222.6913,533.3028 L 223.7343,536.5548 L 224.6753,536.5548 L 223.1233,532.0808 z M 218.1893,535.9998 C 217.2583,535.9998 217.1463,535.0418 217.1463,534.3178 C 217.1463,533.6028 217.2583,532.6358 218.1893,532.6358 C 219.1003,532.6358 219.2223,533.6028 219.2223,534.3178 C 219.2223,535.0418 219.1003,535.9998 218.1893,535.9998 M 218.1893,531.9768 C 216.8353,531.9768 216.2063,532.9078 216.2063,534.3178 C 216.2063,535.7468 216.8353,536.6578 218.1893,536.6578 C 219.5333,536.6578 220.1623,535.7468 220.1623,534.3178 C 220.1623,532.9078 219.5333,531.9768 218.1893,531.9768 M 214.4293,535.8968 L 214.4293,533.5098 C 214.4293,533.1048 214.4853,532.6358 215.1433,532.6358 C 215.2943,532.6358 215.4723,532.6638 215.5943,532.7008 L 215.5943,532.0428 C 215.3783,531.9958 215.1533,531.9768 214.9273,531.9768 C 213.8463,531.9768 213.5833,532.4558 213.5833,533.0668 L 213.5833,535.8968 L 212.7843,535.8968 L 212.7843,536.5548 L 213.5833,536.5548 L 213.5833,537.6078 L 214.4293,538.1338 L 214.4293,536.5548 L 215.6703,536.5548 L 215.6703,535.8968 L 214.4293,535.8968 z M 210.1803,535.9998 C 209.2503,535.9998 209.1373,535.0418 209.1373,534.3178 C 209.1373,533.6028 209.2503,532.6358 210.1803,532.6358 C 211.0923,532.6358 211.2143,533.6028 211.2143,534.3178 C 211.2143,535.0418 211.0923,535.9998 210.1803,535.9998 M 210.1803,531.9768 C 208.8263,531.9768 208.1973,532.9078 208.1973,534.3178 C 208.1973,535.7468 208.8263,536.6578 210.1803,536.6578 C 211.5253,536.6578 212.1543,535.7468 212.1543,534.3178 C 212.1543,532.9078 211.5253,531.9768 210.1803,531.9768 M 206.2803,532.0808 L 206.2803,534.5248 C 206.2803,535.3518 206.2803,535.8118 205.6693,535.8118 C 204.9733,535.8118 204.4843,534.8718 204.4843,533.9788 L 204.4843,532.0808 L 203.6383,532.0808 L 203.6383,538.5668 L 204.4843,538.5668 L 204.4843,535.5958 L 204.5033,535.5958 C 204.6533,535.9718 205.0103,536.6578 205.9223,536.6578 C 206.9563,536.6578 207.1253,535.7368 207.1253,535.1828 L 207.1253,532.0808 L 206.2803,532.0808 z M 200.7433,535.9998 C 200.0573,535.9998 199.7843,535.0508 199.7843,534.3088 C 199.7843,533.5188 200.0103,532.6358 200.7623,532.6358 C 201.4193,532.6358 201.6363,533.3778 201.6363,534.3178 C 201.6363,534.9948 201.5423,535.9998 200.7433,535.9998 M 200.9973,531.9768 C 200.2543,531.9768 199.9163,532.4378 199.8033,532.6908 L 199.7843,532.6908 L 199.7843,530.0688 L 198.9383,530.0688 L 198.9383,536.5548 L 199.7843,536.5548 L 199.7843,535.8778 L 199.8033,535.8778 C 199.9063,536.1318 200.3113,536.6578 201.0443,536.6578 C 202.1253,536.6578 202.5763,535.6718 202.5763,534.3928 C 202.5763,532.8988 202.0123,531.9768 200.9973,531.9768"
       transform="matrix(1.25,0,0,-1.25,0,744.095)"
       style="fill:#656263;fill-opacity:1;fill-rule:nonzero;stroke:none"
       id="path2591" />
  </g>
</svg>
